<?xml version="1.0" encoding="UTF-8"?>
<svg version="1.1" viewBox="0 0 1600 1600" width="1280" height="1280" xmlns="http://www.w3.org/2000/svg">
<path transform="translate(313 247)" d="m0 0c0.69-0 1.39-0 2.1-0.01h6.98c1.69 0 3.38 0 5.07-0.01h14c5.06 0 10.1-0.01 15.2-0.02 10.1-0.01 20.1-0.01 30.2-0.02 12 0 24.1-0.01 36.1-0.02 29.1-0.03 58.2-0.05 87.3-0.06 9.64 0 19.3-0.01 28.9-0.01 50.5-0.03 101-0.05 152-0.06h11.1 2.22c7.43-0.01 14.9-0.01 22.3-0.01h4.47c47.8-0.01 95.7-0.04 144-0.08 34.4-0.03 68.8-0.06 103-0.07h2.15c15.5-0.01 31-0.01 46.6-0.01h18.7 2.07c22-0.01 44-0.03 66-0.05 22.8-0.03 45.6-0.04 68.4-0.03 13.1 0.01 26.3 0 39.4-0.03 8.77-0.01 17.6-0.01 26.3 0 5 0.01 10 0.01 15-0.01 4.55-0.02 9.1-0.02 13.6 0.01 1.64 0 3.27 0 4.9-0.02 15-0.12 27.1 3.28 38 13.9 8.66 9.08 12 17.6 11.8 30.1-0.48 8.51-3.02 15.2-7.15 22.6h-2l-0.76 2.28c-2.45 5.36-7.55 8.45-12.8 10.9-8.85 3.21-17.2 3.37-26.5 3.31-1.71 0-3.42 0.01-5.13 0.02-4.68 0.01-9.37 0-14.1-0.01-5.1-0.01-10.2 0-15.3 0.01-8.94 0.01-17.9 0.01-26.8 0-13.3-0.02-26.6-0.01-39.9 0-22.4 0.01-44.7 0.01-67.1-0.01-22.1-0.01-44.3-0.02-66.4-0.01h-4.17-16.8-46.9-2.16c-22.7 0-45.3-0.01-68-0.02h-2.22c-12 0-23.9-0.01-35.8-0.01-47.4-0.03-94.7-0.03-142-0.02h-8.98-2.25-24.6-2.23c-39 0.01-78 0.01-117 0-5.59-0.01-11.2-0.01-16.8-0.01h-6.25c-15.2-0.01-30.5-0.01-45.7 0h-2.09-10.4c-25 0-50 0-74.9-0.02-13.2-0.01-26.4-0.02-39.6-0.01-8.82 0.01-17.6 0-26.5-0.01-5.03-0.01-10.1-0.01-15.1 0-4.58 0.01-9.15 0-13.7-0.01-1.65-0.01-3.3-0.01-4.94 0-8.15 0.03-15.7 0.05-23.2-3.39-1.06-0.45-1.06-0.45-2.14-0.91-7.12-3.11-13.6-8.6-17.9-15.1-0.75-2.81-0.75-2.81-1-5h-2c-4.52-10.6-4.07-21.2 0-32 2.13-4.57 4.31-8.53 8-12 0.62-0.66 1.24-1.32 1.88-2 8.91-8.44 20.2-12.1 32.2-12.1z" fill="#FAFCFC"/>
<path transform="translate(794 687)" d="m0 0c1.38-0 1.38-0 2.78-0.01 4.42 0.22 7.83 1.08 11.7 3.13 2.32 1.03 4.66 2.02 7 3v2c0.74 0.25 1.49 0.5 2.25 0.76 2.98 1.35 4.65 2.76 6.75 5.24v2h2c10.5 12.9 8.5 32.8 8.62 48.4 0.04 2.44 0.07 4.87 0.1 7.31 0.07 5.25 0.13 10.5 0.19 15.7 0.09 8.42 0.2 16.8 0.31 25.3 0.01 0.72 0.02 1.44 0.03 2.17 0.05 3.67 0.11 7.34 0.16 11 0.04 2.99 0.08 5.99 0.12 8.99 0.45 33 1.14 66 1.87 99 0.28 12.4 0.55 24.9 0.83 37.4 0.04 2.16 0.09 4.31 0.14 6.47 0.72 32.6 1.34 65.3 1.93 98 0.09 4.98 0.18 9.97 0.27 15 0.02 0.95 0.03 1.9 0.05 2.89 0.24 12.7 0.52 25.5 0.84 38.2 0.49 19.7 0.78 39.4 0.99 59.1 0.09 9.02 0.19 18 0.3 27.1 0.01 1.33 0.01 1.33 0.03 2.68 0.16 13.8 0.4 27.6 0.72 41.4 0.36 15.7 0.65 31.3 0.73 47 0.01 1.97 0.03 3.94 0.05 5.91 0.03 2.7 0.04 5.4 0.05 8.09 0.01 0.79 0.02 1.57 0.04 2.37-0.04 8.11-2.52 14.9-6.93 21.7-0.6 0.94-1.2 1.88-1.82 2.85-0.53 0.68-1.07 1.37-1.62 2.08h-2c-0.33 1-0.66 1.99-1 3-1.97 1.5-1.97 1.5-4.5 3-1.22 0.75-1.22 0.75-2.47 1.5-7.53 3.73-14.1 4.97-22.5 4.82-0.89 0-1.79 0-2.71 0.01-6.58-0.06-6.58-0.06-8.85-2.33-1.13-0.32-2.27-0.65-3.44-1-6.22-2.2-11.2-7.15-15.6-12-0.82-2.31-0.82-2.31-1-4h-2c-1.96-3.66-3.39-6.87-4-11h-1c-1.06-4.47-1.31-8.93-1.52-13.5-0.05-0.87-0.09-1.74-0.13-2.63-0.53-11.9-0.71-23.7-0.93-35.6-0.06-3.6-0.13-7.19-0.2-10.8-0.12-6.3-0.23-12.6-0.35-18.9-0.17-9.38-0.35-18.8-0.52-28.2-0.23-12.1-0.45-24.2-0.68-36.2-0.5-27-1.01-54.1-1.52-81.1-1.66-86.7-3.28-173-4.75-260-0.12-6.73-0.23-13.5-0.35-20.2-0.15-8.96-0.3-17.9-0.45-26.9-0.06-3.24-0.11-6.48-0.17-9.72-0.14-8.47-0.27-16.9-0.37-25.4-0.06-3.78-0.14-7.54-0.23-11.3-0.04-2.31-0.08-4.63-0.11-6.94-0.03-1.02-0.07-2.04-0.1-3.09-0.11-10.6 3.57-18.8 9.38-27.5h2c0.08-0.61 0.16-1.23 0.25-1.87 0.75-2.13 0.75-2.13 2.56-3.13 1.09-0.49 1.09-0.49 2.19-1 0.68-0.7 1.36-1.4 2.06-2.12 1.94-1.88 1.94-1.88 4.94-1.88v-2c1.39-0.48 2.79-0.96 4.19-1.43 1.16-0.4 1.16-0.4 2.35-0.81 4.38-1.34 8.38-1.89 13-1.88zm-41.5 35.1 1 3zm0 21v5h1v-5h-1zm1 46v19h1v-19h-1zm1 66v12h1v-12h-1zm1 59v12h1v-12h-1zm1 50v22h1v-22h-1zm1 52v18h1v-18h-1zm1 62v14h1v-14h-1zm1 52v9h1v-9h-1zm1 41v12h1v-12h-1zm1 55v19h1v-19h-1zm1 61v9h1v-9h-1z" fill="#FBFDFD"/>
<path transform="translate(1134 550)" d="m0 0c0.87-0.03 1.75-0.06 2.65-0.09 6.47-0.06 11.2 1.33 16.8 4.4v2c1.02 0.31 1.02 0.31 2.06 0.63 8.76 4.1 14.7 12.2 18 21.2 3.49 11.7 2.09 25.3 2.08 37.4v6.44c0.01 5.88 0 11.8 0 17.6v19.1c0.01 11.7 0.01 23.4 0.01 35.1-0.01 10.8-0.01 21.6-0.01 32.5v2.18c0 2.92 0 5.84 0.01 8.76 0 27.4 0 54.7-0.01 82.1v72.9c0.01 27.3 0.01 54.6 0 82v8.74 2.18c0 10.8 0 21.6 0.01 32.4 0 12.3 0 24.6-0.01 36.9v18.8c0.01 5.75 0 11.5 0 17.2v6.22c0.04 35.2 0.04 35.2-6.13 45.6-0.38 0.67-0.77 1.33-1.16 2.02-5.17 8.07-14 13.2-23.1 15.6-9.47 1.42-20 1.59-28.8-2.59-1.06-0.45-1.06-0.45-2.14-0.91-8.7-3.96-13.7-11.3-18.9-19.1-0.49-1.48-0.49-1.48-1-3l1-2-2-1c-2.04-5.73-2.29-11.7-2.25-17.8v-2.53c-0.01-2.8 0-5.6 0.01-8.39 0-2.04-0.01-4.07-0.01-6.1 0-5.59 0-11.2 0.01-16.8 0.01-6.06 0.01-12.1 0.01-18.2 0-11.2 0.01-22.5 0.02-33.7 0.02-10.4 0.03-20.9 0.03-31.3 0.04-78.6 0.24-157 1.18-415l2-1c0.14-0.72 0.29-1.44 0.44-2.19 1.48-7.43 6.62-14.6 12.4-19.4 4.42-2.9 9.18-4.82 14.1-6.66 4.42-1.76 7.42-2.06 12.5-2.11zm-41.5 319 1 4zm0 193v21h1v-21h-1zm0 54v6h1v-6h-1z" fill="#FBFDFD"/>
<path transform="translate(490,555)" d="m0 0c1.36 0.96 1.36 0.96 2.75 1.94 4.62 3.46 7.14 5.67 9.25 11.1 1.49 0.5 1.49 0.5 3 1 1.13 1.71 1.13 1.71 2.12 3.81 0.34 0.69 0.67 1.38 1.01 2.08 1.88 4.57 2.04 8.86 2.08 13.8 0.01 0.78 0.02 1.57 0.03 2.38 0.03 2.7 0.06 5.4 0.08 8.09 0.02 2 0.04 3.99 0.07 5.99 0.07 6.89 0.12 13.8 0.18 20.7 0.02 1.84 0.02 1.84 0.03 3.71 0.7 82.4 0.5 165 0.35 247-0.01 4.95-0.02 9.9-0.03 14.9v3.72c-0.04 20.2-0.06 40.4-0.06 60.6-0.01 21-0.04 42-0.08 63-0.02 11.7-0.04 23.4-0.04 35.1 0.01 9.86 0 19.7-0.04 29.6-0.02 5.02-0.03 10-0.01 15 0.01 4.59 0 9.18-0.03 13.8-0.01 1.65-0.01 3.31 0 4.96 0.06 9.76-0.13 19.6-7.18 27.2-0.49 0.45-0.98 0.9-1.48 1.36-0.78 0.8-1.57 1.61-2.38 2.44-9.57 9.34-19 11.8-32.1 11.8-9.07-0.14-17.4-2.26-24.5-8.25v-2h-2v-2h-2c-5.52-6.15-8.93-11.8-10-20h-1c-0.02-51.7-0.03-103-0.04-155v-2.31c-0.01-16.6-0.01-33.2-0.01-49.8v-24.4c-0.01-0.81-0.01-1.62-0.01-2.46 0-26.3-0.01-52.6-0.02-78.9-0.01-27-0.01-54-0.01-81v-11.4c0-0.75-0.01-1.5-0.01-2.28 0-12.1 0-24.2-0.01-36.3v-36.4c0-6.58 0-13.2-0.01-19.8v-18.1-6.55c-0.01-2.97-0.01-5.93 0-8.89-0.01-0.85-0.01-1.7-0.01-2.58 0.01-4.69 0.35-9.13 1.13-13.8h2c0.08-0.7 0.17-1.4 0.25-2.12 0.93-3.58 2.61-5.88 4.75-8.88 0.62-1.03 1.24-2.06 1.88-3.12 4.59-6.22 14-11.4 21.4-13.5 10.8-1.39 21.6-1.96 30.7 4.65z" fill="#FAFCFC"/>
<path transform="translate(800 370)" d="m0 0c1.86-0.02 1.86-0.02 3.77-0.04 7.17-0.01 13.8 0.47 20.7 2.23 1.47 0.33 1.47 0.33 2.96 0.67 22.5 5.94 39.8 18.2 57 33.3l-1 5c-4.06 0-5.15-1.56-8.19-4.19-3.39-2.87-6.68-5.49-10.5-7.75-1.09-0.68-2.18-1.36-3.31-2.06v-2c-0.89-0.27-1.77-0.54-2.69-0.81-3.11-1.12-5.52-2.45-8.31-4.19-4.25-2.22-8.55-4.24-13-6-0.82-0.34-1.64-0.67-2.48-1.01-25.8-9.6-58.7-6.75-83.5 4.34-3.45 1.68-6.75 3.5-10 5.48-2 1.19-2 1.19-4 1.19-0.5 1.48-0.5 1.48-1 3-1.57 1.14-1.57 1.14-3.56 2.25-4.04 2.38-7.36 5.2-10.8 8.39-1.66 1.36-1.66 1.36-3.66 1.36-0.25 0.55-0.5 1.11-0.75 1.69-1.47 2.71-3.29 4.92-5.25 7.31l-2 3h-2c-0.23 0.84-0.45 1.69-0.69 2.56-1.33 3.49-2.93 5.9-5.19 8.82-1.32 1.74-1.32 1.74-2.12 4.62h-2c-0.18 0.65-0.36 1.3-0.55 1.97-0.25 0.88-0.5 1.75-0.76 2.65-0.25 0.86-0.49 1.72-0.74 2.6-0.95 2.78-0.95 2.78-2.43 5.7-11.2 22.6-10.2 53.7-2.33 77.3 8.98 23.2 23 44.1 44.8 56.8 1.4 0.89 2.79 1.78 4.19 2.69 20.1 12.4 43.7 17.3 67.1 15.6 1.08-0.08 2.15-0.16 3.26-0.23 10.3-0.9 20-3.21 29.5-7.08 0.8-0.3 1.6-0.6 2.43-0.9 5.06-1.92 9.5-4.11 14-7.15 1.59-0.95 1.59-0.95 3.59-0.95v-2c0.57-0.23 1.13-0.46 1.71-0.7 4.58-1.92 4.58-1.92 7.54-5.68-0.53-5.61-5.22-9.85-8.94-13.8-3.34-3.62-6.55-7.28-9.62-11.1-4.64-5.75-9.64-11.1-14.7-16.5-2.81-2.99-5.52-6.06-8.2-9.17-1.88-2.14-3.81-4.22-5.74-6.31-7.88-8.5-15.2-17.4-22.1-26.7l4-2c2.52 2.66 5.04 5.33 7.56 8 0.71 0.74 1.41 1.49 2.14 2.25 3.44 3.65 6.86 7.32 10.2 11.1 0.55 0.61 1.1 1.23 1.67 1.86 1.43 1.83 1.43 1.83 2.51 4 1.21 2.4 2.54 2.65 4.92 3.83 2.04 2.27 2.04 2.27 4.06 4.93 2.2 2.87 4.38 5.52 6.94 8.07 1.43 1.74 2.84 3.49 4.25 5.25 3.2 3.93 6.47 7.59 10.1 11.1 2.72 2.7 5.4 5.51 7.64 8.63v2h2c1.33 1.78 2.65 3.56 3.95 5.36 2.58 3.32 5.38 6.38 8.24 9.45 0.52 0.56 1.04 1.13 1.58 1.71 1.9 2.03 3.8 4.05 5.77 6 2.08 2.11 3.86 4.42 5.71 6.73 2.63 3.24 5.24 6.35 8.25 9.25 3.74 3.61 6.91 7.62 10.2 11.7 4.81 5.87 9.88 11.5 15.3 16.8 3.87 3.81 7.23 7.95 10.6 12.2 3.29 4 6.79 7.78 10.3 11.6 4.07 4.55 4.07 4.55 4.07 8.31l-5-1v-2c-0.87-0.34-0.87-0.34-1.75-0.69-2.83-1.65-4.28-3.71-6.25-6.31-0.87-0.84-0.87-0.84-1.75-1.69-1.25-1.31-1.25-1.31-1.25-3.31-0.55-0.2-1.09-0.4-1.65-0.6-3.33-1.99-5.49-4.82-7.91-7.78l-3.21-3.81c-0.53-0.64-1.07-1.28-1.63-1.94-2.4-2.81-4.9-5.53-7.41-8.25-5.48-5.93-10.8-12-16-18.2-9.87-13.8-9.87-13.8-22.4-22.8-3.59 0.4-5.03 2.01-7.75 4.31-1.33 0.33-2.67 0.66-4 1l-1 3c-1.58 1.02-1.58 1.02-3.61 1.93-1.1 0.51-1.1 0.51-2.23 1.03-0.77 0.34-1.55 0.68-2.35 1.04-1.51 0.68-3.03 1.37-4.54 2.06-0.73 0.33-1.46 0.66-2.22 0.99-1.79 0.83-3.56 1.72-5.31 2.63-2.53 1.21-4.63 1.88-7.36 2.38-2.32 0.43-4.15 0.82-6.24 1.93-15.9 7.52-46.1 5.15-62.5 0.31-1.9-0.7-3.77-1.5-5.64-2.3-1.52-0.52-3.04-1.01-4.56-1.5-2.79-0.91-5.27-1.89-7.94-3.13-4.18-1.64-8.04-2.08-12.5-2.37l-2 5h-2l-2 5h-2c-0.27 0.8-0.54 1.61-0.81 2.43-0.39 0.85-0.79 1.7-1.19 2.57-0.99 0.33-1.98 0.66-3 1-0.73 1.64-1.39 3.31-2 5-2.84 4.81-5.9 9.17-10 13-2.16 2.6-4.12 5.18-6 8h-2c-0.27 0.73-0.54 1.46-0.82 2.21-1.15 2.72-2.47 4.97-4.12 7.41-0.5 0.76-1.01 1.51-1.52 2.29-1.4 1.9-2.87 3.44-4.54 5.09l-2 3h-2c-0.37 1.08-0.37 1.08-0.75 2.19-1.38 3.1-2.92 5.33-5.25 7.81h-3v-2l-2-1c0.52-0.71 0.52-0.71 1.06-1.43 0.68-0.93 0.68-0.93 1.38-1.88 0.45-0.62 0.9-1.23 1.37-1.87 1.36-1.92 1.36-1.92 2.19-4.82h3c0.23-0.68 0.45-1.36 0.69-2.07 1.87-4.18 4.39-8.06 7.69-11.3 2.28-2.33 4.16-4.91 6.12-7.53 1.16-1.54 1.16-1.54 2.34-3.11 1.87-2.61 3.52-5.26 5.16-8.01 0.98-1.02 1.98-2.02 3-3l2-3h2c0.25-0.72 0.51-1.43 0.77-2.17 1.34-3.08 2.97-5.46 4.98-8.14 0.71-0.96 1.41-1.92 2.14-2.91 1.3-1.72 2.64-3.42 4-5.1 0.55-0.68 1.11-1.36 1.67-2.06 0.5-0.58 1-1.17 1.51-1.77 1.1-1.86 1.1-1.86 0.97-4.24-1.49-3.73-4.2-5.7-7.29-8.11-4.15-3.33-8.05-6.67-11.8-10.5-1.29-1.32-1.29-1.32-2.61-2.66-11.2-11.8-22.5-27.9-25.4-44.3-0.32-0.64-0.63-1.27-0.96-1.92-9.95-19.9-5.26-52.5 1.13-72.8 3.58-9.92 8.83-18.8 14.4-27.7 0.38-0.59 0.75-1.18 1.13-1.79 2.14-3.32 4.39-6.07 7.25-8.77 1.57-1.82 3.1-3.66 4.63-5.51 1.37-1.49 1.37-1.49 3.37-2.49 1.97-1.9 3.86-3.86 5.73-5.85 2.69-2.55 5.6-4.63 8.65-6.72 0.55-0.38 1.1-0.77 1.67-1.16 3.52-2.43 7.09-4.43 11-6.27 1.08-0.56 2.15-1.11 3.26-1.69 11.6-5.95 22.3-9.67 35.2-11.7 6.57-1.14 12.2-1.8 19-1.8zm-13.5 1.19v1h9v-1h-9zm18 0v1h10v-1h-10zm-124 133 1 2z" fill="#FAFCFC"/>
<path transform="translate(511,994)" d="m0 0h1v48h-1v-48z" fill="#000002"/>
<path transform="translate(511,698)" d="m0 0h1v34h-1v-34z" fill="#000002"/>
<path transform="translate(836,766)" d="m0 0h1v27h-1v-27z" fill="#000002"/>
<path transform="translate(844,1203)" d="m0 0h1v22h-1v-22z" fill="#000002"/>
<path transform="translate(837,834)" d="m0 0h1v20h-1v-20z" fill="#000002"/>
<path transform="translate(845,1265)" d="m0 0h1v9h-1v-9z" fill="#000002"/>
<path transform="translate(678,485)" d="m0 0h1v8h-1v-8z" fill="#FBFDFD"/>
<path transform="translate(1131,549)" d="m0 0h5v1h-5v-1z" fill="#FBFDFD"/>
<path transform="translate(468,549)" d="m0 0c3 1 3 1 3 1z" fill="#FBFDFD"/>
<path transform="translate(792,602)" d="m0 0 2 1z" fill="#FBFDFD"/>
</svg>
